<svg xmlns="http://www.w3.org/2000/svg" version="1.1" xmlns:xlink="http://www.w3.org/1999/xlink" xmlns:svgjs="http://svgjs.com/svgjs" width="1000" height="1000"><g transform="matrix(1.7361111111111112,0,0,1.7361111111111112,-0.5694117546081543,2.1751872168646855)"><svg xmlns="http://www.w3.org/2000/svg" version="1.1" xmlns:xlink="http://www.w3.org/1999/xlink" xmlns:svgjs="http://svgjs.com/svgjs" width="576" height="576"><svg version="1.1" id="Layer_1" xmlns="http://www.w3.org/2000/svg" xmlns:xlink="http://www.w3.org/1999/xlink" x="0px" y="0px" viewBox="0 0 576 576" style="enable-background:new 0 0 576 576;" xml:space="preserve">
<path d="M321.94,45.14c-0.53,1.91,0.61,2.34,2.15,2.35c4.18,0.02,8.37-0.1,12.54,0.09c1.75,0.08,3.46,0.79,5.2,1.18
	c1.27,0.29,2.55,0.63,3.84,0.74c3.89,0.33,7.8-0.57,11.61,1.73c1.73,1.04,4.58,0.22,6.91,0.31c2.11,0.09,4.37-0.53,6.09,1.47
	c0.35,0.4,1.24,0.44,1.89,0.47c3.91,0.21,8-0.66,11.49,1.97c5.73-1.14,10.88,2.21,16.5,2.13c1.23-0.02,2.47,0.65,3.71,1.03
	c0.92,0.28,1.83,0.85,2.74,0.85c4.21-0.01,7.83,1.91,11.62,3.3c2.43,0.89,4.86,1.75,7.29,2.65c5.03,1.87,10.04,3.79,15.1,5.59
	c1.54,0.55,3.43,0.38,4.77,1.19c4.36,2.66,9.06,5.08,12.66,8.58c5.02,4.88,8.51,10.87,8.07,18.43c-0.2,3.4-0.28,6.72,1.64,10.05
	c1.09,1.89,0.28,4.88,0.31,7.38c0.07,5.71,3.15,8.77,8.95,8.85c2.17,0.03,4.35,0,6.52,0.01c0.84,0,1.84-0.26,2.48,0.11
	c6.25,3.56,13.04,1.24,19.55,1.87c2.59,0.25,5.12-0.22,7.63,1.54c1.38,0.97,3.88,0.36,5.87,0.49c2.75,0.18,5.73-0.76,8.02,1.67
	c0.19,0.2,0.62,0.25,0.94,0.25c8.33-0.02,14.62,5.32,21.43,8.8c4.66,2.38,8.52,6.85,11.11,11.88c2.11,4.09,4.73,7.97,3.93,12.97
	c-0.13,0.81,0.6,1.79,1.03,2.65c1.44,2.85,1.56,6.04,0.2,8.6c-1.12,2.1-1.28,4.01-1.3,6.13c-0.04,3.66,0.15,7.34-0.08,10.99
	c-0.13,2.06-0.92,4.08-1.42,6.11c-0.16,0.64-0.51,1.29-0.45,1.91c0.6,5.68-0.87,11.11-2.14,16.52c-0.92,3.9-2.27,7.7-3.42,11.55
	c-0.19,0.63-0.46,1.26-0.48,1.9c-0.12,4.85-2.38,9.04-4.02,13.45c-3.75,10.1-8.7,19.63-13.72,29.13c-1.69,3.19-3.63,6.27-5.68,9.24
	c-7.67,11.08-16.46,21.24-26.42,30.3c-5.48,4.99-11.56,9.34-17.5,13.81c-4.85,3.64-9.74,7.28-14.91,10.43
	c-3.6,2.19-7.21,4.67-11.63,5.24c-0.93,0.12-1.82,0.64-2.68,1.06c-2.93,1.44-6.12,2.19-9.12,3.23c-4.41,1.52-8.82,0.79-12.98,1.88
	c-5.07,1.33-8.92,4.99-11.74,9.45c-5.2,8.21-10.35,16.46-15.43,24.74c-2.41,3.93-4.52,8.04-6.93,11.97c-1.8,2.94-3.88,5.72-5.8,8.59
	c-2.1,3.13-4.06,6.37-6.27,9.41c-1.35,1.86-2.94,3.59-4.65,5.12c-1.44,1.29-3.22,2.2-4.86,3.28c-0.54,0.36-1.05,0.92-1.64,1.03
	c-4.13,0.72-7.9,2.43-11.81,3.82c-3.74,1.34-7.88,1.57-11.83,2.36c-1.07,0.22-2.1,0.68-3.13,1.09c-0.45,0.18-0.88,0.73-1.27,0.69
	c-5.35-0.64-10.29,1.49-15.43,2.15c-2.88,0.37-5.68-0.13-8.55,1.63c-1.84,1.13-4.88,0.31-7.38,0.42c-2.1,0.09-4.26-0.43-6.08,1.45
	c-0.62,0.65-2.2,0.5-3.34,0.52c-4.35,0.05-8.7-0.01-13.04,0.04c-1.94,0.02-3.88-0.28-5.61,1.36c-0.77,0.73-2.51,0.59-3.81,0.6
	c-9.03,0.04-18.06,0.08-27.09-0.03c-1.53-0.02-3.04-0.79-4.57-1.16c-1.26-0.3-2.54-0.72-3.82-0.75c-4.51-0.09-9.03,0.04-13.55-0.07
	c-2.56-0.06-5.28,0.75-7.51-1.59c-0.6-0.63-2.23-0.27-3.39-0.38c-4.5-0.43-9.1,0.96-13.51-1.74c-1.71-1.05-4.58-0.18-6.92-0.27
	c-2.09-0.08-4.29,0.53-6.03-1.48c-0.49-0.57-1.88-0.43-2.86-0.49c-3.38-0.22-6.93,0.76-9.95-1.8c-0.61-0.51-1.95-0.28-2.94-0.19
	c-5.19,0.46-9.73-1.46-14.29-3.57c-2.2-1.02-4.88-1.14-6.89-2.38c-4.06-2.5-7.9-5.36-11.65-8.32c-2.21-1.75-3.96-4.07-6.08-5.94
	c-4.67-4.11-8.02-9.14-11.12-14.46c-3.31-5.68-7.26-10.99-10.43-16.74c-6.23-11.28-12.52-22.57-17.98-34.22
	c-3-6.4-6.16-12.74-8.91-19.24c-2.71-6.4-4.47-13.21-6.67-19.83c-1.97-5.94-3.79-11.95-6.02-17.79c-1.9-4.99-2.28-10.44-4.17-15.2
	c-1.45-3.64-0.33-7.9-3.22-11.04c-0.54-0.59-0.21-1.93-0.43-2.89c-0.36-1.54-0.86-3.05-1.3-4.57c-0.22-0.78-0.59-1.56-0.64-2.35
	c-0.2-3.08-0.68-5.96-1.65-9.02c-1.68-5.34-1.73-11.19-2.4-16.84c-0.25-2.08,0.26-4.14-1.37-6.12c-0.88-1.06-0.63-3.17-0.63-4.8
	c-0.04-12.49-0.01-24.99-0.04-37.48c0-1.95,0.13-3.81-1.27-5.66c-0.77-1.02-0.83-3.63-0.05-4.54c1.55-1.82,1.3-3.69,1.32-5.62
	c0.05-8.5-0.03-16.99,0.05-25.49c0.03-2.9-0.24-5.67,1.5-8.58c1.19-2,0.36-5.19,0.49-7.84c0.14-2.73-0.68-5.62,1.64-8.02
	c0.54-0.56,0.29-1.91,0.35-2.9c0.13-2.42-0.46-4.94,1.62-7.01c0.55-0.55,0.19-1.93,0.41-2.88c0.97-4.05,1.47-8.24,4.49-11.57
	c1.41-1.56,2.11-3.76,3.49-5.36c4.23-4.92,9.77-7.64,16.01-9.27c2.89-0.76,5.66-2.07,8.4-3.31c2.2-1,5.12,0.04,6.79-2.4
	c5.89-0.25,10.73-4.43,16.79-4.33c1.96,0.03,4.23-0.81,5.84-1.97c3.47-2.49,8.12-0.75,11.44-3.58c0.61-0.52,1.93-0.24,2.93-0.3
	c2.43-0.14,4.97,0.52,7.03-1.64c0.52-0.54,1.91-0.29,2.9-0.35c2.42-0.17,4.83,0.39,7.08-1.53c1.01-0.86,3.2-0.35,4.85-0.48
	c3.22-0.25,6.64,0.86,9.51-1.75c0.57-0.52,1.94-0.23,2.94-0.24c3.18-0.02,6.36,0.12,9.53-0.07c1.55-0.09,3.06-0.84,4.61-1.19
	c1.43-0.32,2.88-0.71,4.33-0.72c7.36-0.07,14.72-0.03,22.08-0.05c1.65,0,3.54,0.22,3.44-2.37
	C261.73,45.14,291.84,45.14,321.94,45.14z M436.5,94.03c-1.54-6.1-5.39-9.06-10.48-11.02c-4.37-1.69-8.44-4.3-12.91-5.52
	c-2.49-0.68-4.8-2.32-7.29-2.27c-4.81,0.1-8.97-3.38-13.9-2.23c-0.41,0.1-1.14-0.13-1.36-0.45c-1.29-1.91-3.24-1.32-5.01-1.46
	c-3.69-0.31-7.64,1.08-10.94-1.81c-0.4-0.35-1.29-0.13-1.96-0.18c-4.19-0.31-8.6,1.04-12.44-1.87c-0.54-0.41-1.63-0.13-2.46-0.13
	c-2.84-0.01-5.69,0.03-8.53-0.02c-1.49-0.02-3.54,0.39-4.36-0.4c-2.33-2.22-4.97-1.5-7.53-1.56c-4.51-0.11-9.03,0-13.54-0.05
	c-1.14-0.01-2.77,0.13-3.34-0.52c-1.78-2.03-3.99-1.43-6.05-1.43c-25.25-0.04-50.49-0.09-75.74,0.03
	c-4.35,0.02-8.96-1.23-12.98,1.79c-0.55,0.41-1.63,0.14-2.46,0.15c-2.68,0.01-5.37-0.18-8.02,0.04c-6,0.5-12.26-1.57-17.99,1.85
	c-0.75,0.45-1.97,0.11-2.97,0.11c-3.01,0.01-6.02-0.03-9.03,0.02c-1.15,0.02-2.78-0.17-3.36,0.47c-1.94,2.15-4.32,1.35-6.56,1.49
	c-2.33,0.15-5.25-0.71-6.88,0.39c-3,2.03-6,1.42-9.06,1.63c-1.16,0.08-2.77-0.24-3.39,0.39c-2.1,2.12-4.61,1.45-7.02,1.62
	c-1.15,0.08-2.78-0.13-3.34,0.52c-1.48,1.7-3.27,1.36-5.06,1.48c-0.99,0.06-2.05,0.04-2.94,0.39c-2.8,1.1-5.44,2.75-8.33,3.46
	c-5.39,1.31-10.51,3.08-15.42,5.71c-5.51,2.95-6.72,8.46-2.37,12.65c4.9,4.72,10.71,7.95,17.14,10.08c2.29,0.76,4.61,1.89,6.95,1.99
	c4.61,0.2,8.7,3.26,13.48,2.24c0.41-0.09,0.9,0.36,1.38,0.48c1.85,0.48,3.7,1.02,5.58,1.37c1.14,0.21,2.67-0.31,3.43,0.26
	c3.76,2.84,8.02,1.41,12.06,1.76c2.11,0.18,4.28-0.39,6.12,1.45c0.65,0.65,2.21,0.51,3.36,0.53c3.34,0.06,6.69-0.01,10.03,0.04
	c1.66,0.02,3.8-0.44,4.89,0.4c2.74,2.09,5.68,1.53,8.6,1.57c6.02,0.08,12.04-0.02,18.06,0.06c1.45,0.02,2.91,0.42,4.35,0.73
	c1.72,0.37,3.42,1.17,5.14,1.18c26.42,0.08,52.83,0.06,79.25,0.04c1.17,0,2.73,0.33,3.43-0.27c2.91-2.54,6.3-1.6,9.52-1.68
	c5.01-0.12,10.03-0.01,15.05-0.05c1.32-0.01,3.12,0.28,3.87-0.44c2.16-2.06,4.64-1.47,7.07-1.53c3.34-0.07,6.69,0.02,10.03-0.05
	c1.14-0.02,2.7,0.06,3.33-0.6c1.68-1.77,3.67-1.29,5.6-1.35c3.17-0.1,6.82,0.85,9.4-0.4c3.41-1.65,6.66-1.46,10.06-1.64
	c0.98-0.05,2-0.15,2.93-0.44c3.65-1.12,7.2-3.01,10.91-3.34c5.34-0.47,9.91-2.81,14.76-4.49c3.02-1.05,5.87-3.24,8.91-3.47
	C431.86,101.32,433.53,96.82,436.5,94.03z M456.39,301.16c6.63-2,11.15-6.7,15.86-10.61c6.91-5.73,13.04-12.43,19.23-18.97
	c3.27-3.46,5.99-7.44,8.88-11.25c1.49-1.96,3.15-3.91,4.1-6.14c4.43-10.3,10.5-19.87,12.59-31.24c0.94-5.12,4.08-9.85,3.72-15.41
	c-0.04-0.6,0.42-1.21,0.6-1.84c0.45-1.52,1.16-3.03,1.26-4.58c0.2-3.15,0-6.33,0.09-9.49c0.04-1.29,0.03-2.8,0.67-3.81
	c2.17-3.45,1.76-6.99,0.45-10.39c-1.38-3.57-3.03-7.19-8.08-6.6c-0.57,0.07-1.24-1.32-1.9-1.35c-4.24-0.21-7.8-3.37-12.33-2.53
	c-2.06,0.38-4.88,0.6-6.3-0.48c-2.21-1.67-4.41-1.65-6.56-1.33c-3.46,0.51-6.83,1.63-10.57,2.58c0,1.96,0,3.77,0,5.58
	c0,7.33,0.03,14.66-0.03,21.99c-0.01,1.65,0.21,3.67-0.63,4.85c-1.65,2.32-1.27,4.73-1.34,7.16c-0.12,3.99,0.75,8.31-0.52,11.89
	c-1.33,3.77-1.01,7.43-1.61,11.11c-0.81,5-2.41,9.86-2.18,15.02c0.02,0.56-0.64,1.13-0.84,1.74c-0.35,1.07-0.69,2.17-0.87,3.28
	c-0.8,4.99-1.55,10-2.32,14.99c-0.03,0.16-0.06,0.33-0.11,0.49c-1.19,3.67-2.53,7.29-3.54,11.01c-0.93,3.42-1.49,6.93-2.22,10.4
	c-0.07,0.32-0.17,0.64-0.29,0.95C459.94,292.35,458.26,296.51,456.39,301.16z"></path>
<path d="M359.68,490.77c-4.29,0.54-8.08-0.91-11.27,1.91c-0.59,0.52-1.94,0.23-2.94,0.23c-4.01,0.02-8.03-0.04-12.04,0.03
	c-2.26,0.04-4.6-0.52-6.55,1.52c-0.61,0.64-2.22,0.44-3.37,0.44c-33.94,0.02-67.88,0.03-101.82-0.04c-1.5,0-2.99-0.92-4.51-1.29
	c-1.27-0.31-2.58-0.59-3.88-0.62c-3.51-0.09-7.02,0.02-10.53-0.05c-2.08-0.04-4.13,0.32-6.07-1.4c-0.99-0.88-3.18-0.42-4.82-0.58
	c-4-0.39-8.01,0.71-12.03-1.64c-2.14-1.25-5.56-0.25-8.39-0.38c-2.4-0.11-4.82,0.5-7.04-1.51c-0.97-0.87-3.2-0.32-4.85-0.48
	c-3.19-0.31-6.45,0.78-9.52-1.63c-1.27-1-3.88-0.25-5.88-0.37c-2.72-0.16-5.62,0.74-7.97-1.68c-0.52-0.54-1.92-0.23-2.92-0.3
	c-2.4-0.17-4.89,0.57-7.01-1.59c-0.7-0.71-2.55-0.32-3.87-0.41c-2.09-0.14-4.32,0.52-5.99-1.56c-0.38-0.47-1.56-0.41-2.38-0.42
	c-4.13-0.02-7.62-2.07-11.32-3.46c-0.61-0.23-1.26-0.51-1.89-0.51c-4.62-0.05-8.55-2.75-12.77-3.56c-6.96-1.35-13.15-4.57-19.6-6.92
	c-8.03-2.94-15.46-7.65-22.91-12c-3.53-2.06-6.47-5.11-9.73-7.63c-4.76-3.67-7.94-8.53-9.99-14.01c-1.45-3.86-1.25-7.82,0.35-11.95
	c3.35-8.67,10.12-14.61,16.86-20c6.54-5.23,13.95-9.76,22.57-11.77c4.14-0.97,7.94-3.4,11.88-5.17c2.2-0.99,4.59-1.11,6.9-2.15
	c4.75-2.16,10.1-3.01,15.17-4.5c1.52-0.45,2.88-1.51,4.41-1.83c5.98-1.28,9.64,2.47,12.12,6.82c6.14,10.76,12.63,21.26,19.75,31.43
	c2.61,3.74,5.34,7.17,8.75,10.08c2,1.7,4.29,3.07,6.53,4.47c3.06,1.92,6.12,3.86,9.32,5.53c2.56,1.34,5.3,2.38,8.02,3.38
	c3.94,1.44,7.87,3.54,11.92,3.85c4.94,0.38,9.33,3.33,14.48,2.46c1.42-0.24,3.06,0.77,4.59,1.24c0.47,0.14,0.94,0.59,1.35,0.52
	c6.38-1.06,12.16,2.79,18.51,2.19c2.24-0.21,4.57-0.47,6.61,1.43c0.77,0.72,2.55,0.48,3.86,0.49c5.35,0.05,10.7-0.04,16.05,0.04
	c2.92,0.04,5.93-0.6,8.58,1.62c0.82,0.69,2.58,0.34,3.9,0.34c8.19,0.02,16.38,0.03,24.58,0c1.95-0.01,3.87,0.25,5.6-1.4
	c0.76-0.73,2.52-0.55,3.83-0.56c6.35-0.05,12.71,0.03,19.06-0.05c2.58-0.03,4.98,0.02,7.6-1.44c2.19-1.23,5.53-0.38,8.35-0.54
	c2.57-0.15,5.29,0.69,7.56-1.56c0.63-0.63,2.22-0.33,3.38-0.41c2.26-0.16,4.66,0.53,6.54-1.56c0.42-0.47,1.57-0.37,2.38-0.42
	c1.95-0.13,4.04,0.39,5.52-1.55c0.24-0.31,0.92-0.42,1.39-0.41c2.65,0.02,4.97-0.73,7.49-1.73c3.67-1.47,7.88-1.53,11.83-2.37
	c2.34-0.5,4.68-1.15,6.9-2.04c6.12-2.47,12.6-4.11,17.09-9.74c3.18-4,7.24-7.23,9.07-12.3c0.76-2.1,2.61-3.79,3.86-5.72
	c4.29-6.61,8.58-13.23,12.79-19.9c1.23-1.95,2.25-4.03,3.22-6.13c1.92-4.18,4.83-6.62,9.74-6.12c3.06,0.31,5.97,0.11,9.1,1.55
	c2.72,1.25,6.29,1.05,9.36,2.38c3.24,1.41,6.68,2.34,10.02,3.49c2.29,0.79,4.52,1.8,6.86,2.39c10.15,2.57,18.53,8.95,28.09,12.77
	c5.66,5.72,13.26,9.14,17.58,16.65c2.58,4.48,5.09,8.8,4.99,13.78c-0.1,5.16-1.65,10.11-5.85,13.97c-4.66,4.27-10,7.5-15.07,11.15
	c-8.46,6.09-18.34,9.3-27.1,14.65c-2.14,1.31-4.64,0.42-6.91,2.27c-2.14,1.75-5.77,1.63-8.67,2.54c-2.87,0.9-5.63,2.18-8.5,3.09
	c-3.35,1.06-6.77,1.89-10.16,2.85c-1.36,0.39-2.71,0.83-4.05,1.29c-0.46,0.16-0.94,0.66-1.32,0.58c-4.75-0.98-8.82,2.19-13.42,2.17
	c-0.94,0-1.88,0.42-2.81,0.67c-1.53,0.42-3.03,1.04-4.58,1.24c-2.24,0.29-4.6-0.43-6.52,1.64c-0.59,0.63-2.22,0.31-3.38,0.4
	c-3.05,0.24-6.03-0.36-9.06,1.59c-1.8,1.16-4.88,0.31-7.37,0.42c-2.1,0.09-4.22-0.39-6.09,1.43c-0.75,0.73-2.52,0.44-3.83,0.55
	c-3.7,0.32-7.4-0.58-11.05,1.67C364.49,491.69,361.42,490.77,359.68,490.77z"></path>
<path d="M11.58,432.85c1.26,1.13,2.25,1.67,2.74,2.5c2.84,4.85,5.35,9.91,8.42,14.6c1.7,2.59,4.06,4.87,6.52,6.8
	c4.28,3.36,8.73,6.54,13.35,9.43c4.9,3.06,10.03,5.76,15.69,7.26c0.64,0.17,1.28,0.37,1.88,0.64c5.1,2.26,10.01,5.21,15.34,6.62
	c5.62,1.49,10.71,4.76,16.8,4.81c1.99,0.02,4.24,0.84,5.91,1.97c3.52,2.39,7.83,1.5,11.58,3.43c3.32,1.71,7.67,1.29,11.28,2.58
	c4.61,1.65,9.56,1,13.93,2.3c3.76,1.11,7.68,0.56,10.99,1.83c4.87,1.87,10.09,0.45,14.48,2.06c6.92,2.53,13.77,1.11,20.61,1.72
	c1.14,0.1,2.63-0.02,3.33,0.62c1.73,1.59,3.68,1.34,5.64,1.35c9.2,0.02,18.39-0.02,27.59,0.03c2.11,0.01,4.24-0.38,6.14,1.39
	c0.78,0.73,2.53,0.57,3.84,0.57c37.95,0.03,75.91,0.02,113.86,0.01c1.79,0,3.53,0.17,5.11-1.35c0.77-0.73,2.51-0.59,3.82-0.61
	c4.51-0.07,9.03,0.02,13.54-0.05c2.43-0.04,4.94,0.55,7.06-1.55c0.63-0.63,2.22-0.32,3.38-0.42c4.51-0.42,9.13,0.93,13.55-1.74
	c1.73-1.04,4.58-0.2,6.92-0.28c2.1-0.07,4.3,0.44,6.07-1.48c0.52-0.56,1.88-0.43,2.86-0.49c2.59-0.17,5.3,0.54,7.51-1.7
	c0.53-0.54,1.92-0.25,2.91-0.31c2.42-0.15,4.94,0.52,7.04-1.62c0.62-0.63,2.23-0.31,3.39-0.38c2.27-0.14,4.73,0.56,6.49-1.63
	c0.17-0.21,0.61-0.26,0.93-0.28c2.75-0.22,5.3-0.54,8.03-1.72c2.47-1.06,5.53-1.16,8.33-2.21c6.25-2.35,12.84-3.75,19.24-5.72
	c13.34-4.12,25.43-10.77,37.79-16.82c5.67-2.78,10.26-7.6,15.02-11.97c5.76-5.28,8.53-12.12,11.79-18.7
	c1.14-2.31,0.44-5.56,0.45-8.38c0.01-2.23,0.01-4.39,2.73-5.77c2.67,2.1,4.55,4.96,4.78,8.43c0.32,4.81,0.23,9.66-0.04,14.48
	c-0.11,1.89-1.19,3.71-1.82,5.57c-3.28,9.73-10.35,16.7-18.04,22.77c-4.58,3.62-9.15,7.46-14.74,10.02
	c-3.77,1.73-7.06,5.18-11.16,6.22c-6.58,1.66-11.87,6.08-18.57,7.51c-5.06,1.08-9.74,3.82-14.71,5.45
	c-3.34,1.1-6.92,1.45-10.33,2.36c-2.92,0.77-5.75,1.86-8.63,2.8c-1.21,0.39-2.4,0.93-3.64,1.1c-1.76,0.25-3.56-0.22-5.08,1.42
	c-0.61,0.66-2.19,0.37-3.3,0.64c-1.53,0.38-3.02,0.91-4.54,1.33c-0.94,0.26-1.89,0.54-2.85,0.62c-1.94,0.16-3.95-0.33-5.52,1.56
	c-0.47,0.56-1.88,0.4-2.86,0.45c-1.8,0.09-3.71-0.3-5,1.5c-0.16,0.22-0.58,0.36-0.89,0.37c-2.5,0.07-5.04-0.13-7.5,0.23
	c-2.18,0.32-4.24,1.53-6.42,1.84c-2.72,0.39-5.36,0-8.03,1.7c-1.69,1.07-4.55,0.27-6.88,0.39c-2.25,0.11-4.61-0.56-6.57,1.5
	c-0.61,0.64-2.21,0.45-3.36,0.47c-3.51,0.05-7.02-0.02-10.53,0.03c-2.11,0.03-4.19-0.28-6.11,1.42c-0.9,0.8-2.85,0.54-4.33,0.55
	c-14.38,0.03-28.76,0.01-43.14,0.03c-2.29,0-4.58-0.33-6.66,1.42c-0.84,0.71-2.54,0.54-3.85,0.55c-14.38,0.03-28.76,0.06-43.14-0.03
	c-1.53-0.01-3.04-0.83-4.59-1.15c-1.59-0.34-3.22-0.75-4.83-0.76c-12.71-0.06-25.41-0.02-38.12-0.06c-1.92-0.01-3.78,0.28-5.59-1.32
	c-1-0.89-3.16-0.51-4.8-0.65c-3.36-0.31-6.73,0.6-10.03-1.65c-1.62-1.1-4.55-0.25-6.88-0.37c-2.24-0.12-4.63,0.65-6.52-1.5
	c-0.49-0.56-1.88-0.41-2.86-0.47c-3.38-0.21-6.9,0.73-9.96-1.8c-0.72-0.59-2.27-0.12-3.43-0.23c-3.51-0.32-7.28,1.07-10.46-1.76
	c-0.58-0.52-1.94-0.16-2.94-0.24c-2.24-0.16-4.63,0.6-6.51-1.54c-0.49-0.56-1.89-0.38-2.87-0.44c-2.57-0.17-5.31,0.62-7.44-1.73
	c-0.41-0.45-1.6-0.21-2.43-0.28c-1.76-0.14-3.57,0.35-5.06-1.37c-0.58-0.66-2.19-0.37-3.3-0.65c-1.52-0.38-3-0.88-4.5-1.34
	c-0.63-0.19-1.24-0.57-1.87-0.58c-4.61-0.08-8.67-1.82-12.78-3.71c-2.72-1.25-5.86-1.57-8.79-2.38c-2.46-0.68-4.99-1.24-7.3-2.26
	c-6.44-2.84-12.77-5.94-19.19-8.82c-2.07-0.93-4.44-1.21-6.45-2.23c-12.83-6.53-24.32-14.88-33.75-25.8
	c-2.01-2.33-3.35-5.34-4.56-8.22C11.8,445.96,9.72,440.24,11.58,432.85z"></path>
</svg></svg></g></svg>